<?xml version="1.0" encoding="UTF-8"?>
<svg id="Layer_1" xmlns="http://www.w3.org/2000/svg" version="1.1" viewBox="0 0 215 66">
  <!-- Generator: Adobe Illustrator 29.7.0, SVG Export Plug-In . SVG Version: 2.1.1 Build 138)  -->
  <defs>
    <style>
      .st0 {
        fill: #078c00;
      }

      .st1 {
        fill: #0b4403;
      }

      .st2 {
        font-family: JannaLT-Bold, 'Janna LT';
        font-size: 11.2px;
        font-weight: 700;
      }

      .st3 {
        fill: #01b3d7;
      }
    </style>
  </defs>
  <g>
    <g>
      <g>
        <path class="st1" d="M38,21.9c-.3,0-.6-.1-.8-.2-.7-.2-1.5-.3-2.3-.4,0,.3,0,.5,0,.8,0,.8,0,1.5,0,2.3,0,.3,0,.5,0,.8.8.2,1.5.4,2.2.6,2.1.7,4.1,1.6,5.9,2.8l4-2.6c-3.1-2-6.1-3.3-9-4Z"/>
        <path class="st1" d="M50.7,34.8c0,1.8-.2,3.3-.5,4.3-.4,1.1-1.1,2.3-2.3,3.6-1.1,1.3-2.7,2.5-4.6,3.5-1.9,1-3.9,1.8-6.1,2.2-2.2.4-4.8.7-7.8.7-6.9,0-12.4-1.4-16.4-4.3-4.1-2.9-6.1-6.2-6.1-9.9s2.1-7.2,6.3-10c2-1.3,4.3-2.3,6.7-3,.1,0,.2,0,.3,0,.5-.1.9-.2,1.4-.3.3,0,.5-.1.8-.2,1.9-.3,3.9-.5,6-.5s2,0,3,0c.6,0,1.2,0,1.8.1.6,0,1.3.1,1.9.2,0,.3,0,.5,0,.8,0,.8,0,1.5,0,2.3,0,.3,0,.5,0,.8-.6-.1-1.2-.2-1.8-.3-.6,0-1.2-.1-1.8-.2-.8,0-1.6,0-2.4,0-2.4,0-4.5.3-6.5.8-.3,0-.5.1-.8.2-.5.1-.9.3-1.3.5-.1,0-.2,0-.4.1-.9.4-1.8.9-2.7,1.4-3.1,2-4.7,4.5-4.7,7.5s1.5,5,4.5,7.1c3,2.1,7.2,3.2,12.4,3.2,7.9,0,12.9-2.3,15-6.9h-6.8c.7-1.5,1.1-2.9,1.3-3.6h11.7Z"/>
      </g>
      <path class="st3" d="M37.1,21.7c0-.3,0-.6,0-.9,0-5-.9-9.3-2.5-13-1.7-4-3.7-5.9-6-5.9s-4.4,2-6.1,5.9c-1.6,3.8-2.5,8.8-2.5,14.1.5-.1.9-.2,1.4-.3.3,0,.5-.1.8-.2,0-3.7.7-7.1,1.8-9.8,1.2-2.9,2.7-4.4,4.4-4.4s3.3,1.4,4.5,4.3c1.1,2.5,1.7,5.6,1.8,9.2,0,.2,0,.4,0,.6,0,.3,0,.5,0,.8,0,.8,0,1.5,0,2.3,0,.3,0,.5,0,.8-.2,2.8-.8,5.2-1.7,7.4-1.2,2.9-2.7,4.4-4.3,4.4s-3.3-1.4-4.6-4.3c-.9-2-1.6-4.6-1.8-7.3-.3,0-.5.1-.8.2-.5.1-.9.3-1.3.5.3,3.9,1.1,7.4,2.3,10.4,1.7,4,3.7,6,6,6s4.4-2,6.1-6c1.3-3,2-6.6,2.3-10.7,0-.4,0-.8,0-1.2,0-.9,0-1.8,0-2.7s0-.1,0-.2Z"/>
      <g>
        <path class="st0" d="M44.3,28.7s.5.4.5,1.3c0,0,0,.6.1,1.2,0,0,0,.5.4,1.1,0,0,.4.7,1.2,1,0,0,0-.5-.1-1.2-.2-.7-.4-1.1-.4-1.1,0,0-.4-.7-.8-1.1,0,0,.4.4.8.8.3.5.4.7.4.7,0,0,.2.3.3.9.1.6,0,1,0,1,0,0,.2-.4.3-1,0-.6,0-1.2,0-1.2,0,0,0-.7-.8-1.3-.7-.7-1.6-.9-1.6-.9l-.5-.2Z"/>
        <path class="st0" d="M57.1,29.6s-1.2,0-2.4,1.3c0,0-.8,1-1.7,1.7,0,0-.8.7-2,1.1,0,0-1.5.6-3,0,0,0,.6-.9,1.7-1.8,1.1-.8,1.9-1.1,1.9-1.1,0,0,1.5-.6,2.5-.7,0,0-1.1,0-2.2.4-1.1.3-1.5.5-1.5.5,0,0-.6.2-1.6,1-1,.8-1.3,1.5-1.3,1.5,0,0,.1-.8.8-1.9.7-1.1,1.5-1.8,1.5-1.8,0,0,1-.9,2.9-1.1,1.9-.2,3.5.5,3.5.5l1,.4Z"/>
      </g>
    </g>
    <g>
      <g>
        <path class="st3" d="M9.1,51.6c.6,0,1,.1,1.4.3.4.2.7.5.9,1,.2.4.3.9.3,1.4s0,.8-.2,1.1c-.1.3-.3.6-.5.9-.2.2-.5.4-.8.6-.3.1-.7.2-1.1.2s-.8,0-1.1-.2c-.3-.1-.6-.3-.8-.6-.2-.2-.4-.5-.5-.9s-.2-.7-.2-1.1,0-.8.2-1.1c.1-.3.3-.6.5-.9s.5-.4.8-.5.7-.2,1.1-.2ZM10.7,54.3c0-.4,0-.7-.2-1-.1-.3-.3-.5-.5-.6-.2-.1-.5-.2-.8-.2s-.4,0-.6.1c-.2,0-.3.2-.5.4-.1.2-.2.4-.3.6s-.1.5-.1.8,0,.6.1.8.2.4.3.6c.1.2.3.3.5.4s.4.1.6.1.5,0,.8-.2c.2-.1.4-.3.6-.6.1-.3.2-.6.2-1.1Z"/>
        <path class="st3" d="M12.9,55.6l1.5-2.2-1.3-2c-.1-.2-.2-.4-.3-.5s0-.3,0-.4,0-.2.2-.3c.1-.1.3-.2.4-.2s.3,0,.5.2.3.3.4.6l1,1.6,1.1-1.6c0-.1.2-.3.2-.4,0,0,.1-.2.2-.2,0,0,.1-.1.2-.1,0,0,.2,0,.3,0,.2,0,.3,0,.4.2.1.1.2.2.2.4,0,.2-.1.5-.4.8l-1.4,2,1.5,2.2c.1.2.2.4.3.5,0,.1,0,.2,0,.4s0,.2,0,.3c0,0-.1.2-.2.2,0,0-.2,0-.3,0s-.2,0-.3,0c0,0-.2-.1-.2-.2,0,0-.2-.2-.3-.5l-1.2-1.9-1.3,1.9c0,.2-.2.3-.2.3,0,0,0,.1-.2.2,0,0-.1.1-.2.1,0,0-.2,0-.3,0-.2,0-.3,0-.4-.2s-.2-.2-.2-.4.1-.5.3-.8Z"/>
        <path class="st3" d="M21.3,51.6c.6,0,1,.1,1.4.3.4.2.7.5.9,1,.2.4.3.9.3,1.4s0,.8-.2,1.1c-.1.3-.3.6-.5.9-.2.2-.5.4-.8.6-.3.1-.7.2-1.1.2s-.8,0-1.1-.2c-.3-.1-.6-.3-.8-.6-.2-.2-.4-.5-.5-.9s-.2-.7-.2-1.1,0-.8.2-1.1c.1-.3.3-.6.5-.9s.5-.4.8-.5.7-.2,1.1-.2ZM22.8,54.3c0-.4,0-.7-.2-1-.1-.3-.3-.5-.5-.6-.2-.1-.5-.2-.8-.2s-.4,0-.6.1c-.2,0-.3.2-.5.4-.1.2-.2.4-.3.6s-.1.5-.1.8,0,.6.1.8.2.4.3.6c.1.2.3.3.5.4s.4.1.6.1.5,0,.8-.2c.2-.1.4-.3.6-.6.1-.3.2-.6.2-1.1Z"/>
      </g>
      <g>
        <path d="M9.2,60.4h-.8v.7c0,.1,0,.2-.1.2s-.2,0-.3,0-.2,0-.3,0c0,0-.1-.1-.1-.2v-1.9c0-.1,0-.2.1-.2s.2,0,.4,0h1.1c.3,0,.6,0,.8,0,.2,0,.3,0,.5.1s.2.1.3.2,0,.2,0,.3c0,.3-.1.4-.4.6s-.7.2-1.2.2ZM8.9,59.3h-.6v.8h.6c.2,0,.4,0,.5,0,.1,0,.2,0,.3-.1,0,0,.1-.1.1-.2s0-.2-.2-.3c-.1,0-.4-.1-.8-.1Z"/>
        <path d="M14.6,61.1l-.2-.3h-1.7l-.2.3c0,.1-.1.2-.2.3,0,0-.1,0-.3,0s-.2,0-.3,0c0,0-.1,0-.1-.2s0,0,0-.1c0,0,0,0,0-.2l1.1-1.6s0-.1.1-.2,0-.1.1-.2c0,0,.1,0,.2-.1,0,0,.2,0,.3,0s.2,0,.3,0c0,0,.1,0,.2.1s0,0,.1.1c0,0,0,.1.1.2l1.1,1.6c0,.1.1.2.1.3s0,.1-.1.2c0,0-.2,0-.3,0s-.1,0-.2,0,0,0-.1,0c0,0,0,0-.1-.1,0,0,0,0,0-.1ZM12.9,60.4h1.3l-.6-1-.6,1Z"/>
        <path d="M20.5,60.6c0,0,0,.2-.1.3,0,0-.2.2-.3.3-.1,0-.3.2-.6.2-.2,0-.5,0-.8,0s-.4,0-.6,0c-.2,0-.4,0-.5-.1-.2,0-.3-.1-.4-.2-.1,0-.2-.2-.3-.3,0,0-.1-.2-.2-.3,0-.1,0-.2,0-.3,0-.2,0-.4.2-.5.1-.2.2-.3.4-.4s.4-.2.7-.3c.3,0,.5,0,.8,0s.7,0,.9.1c.3,0,.5.2.6.3.1.1.2.2.2.3s0,.1-.1.2c0,0-.2,0-.3,0s-.2,0-.2,0c0,0-.1,0-.2-.2-.1-.1-.2-.2-.4-.3s-.3,0-.6,0c-.4,0-.6,0-.9.2-.2.2-.3.4-.3.7s0,.4.1.5.2.2.4.3c.2,0,.4,0,.6,0s.5,0,.6-.1.3-.2.4-.3c0,0,0-.1.1-.2s.1,0,.3,0,.2,0,.3,0c0,0,.1,0,.1.2Z"/>
        <path d="M23.1,59.1v.9l1.7-1c0,0,.2,0,.2-.1s.1,0,.2,0,.2,0,.3,0c0,0,.1,0,.1.2s0,.1-.2.2l-1.1.6,1.2,1c0,0,.1.1.2.2,0,0,0,.1,0,.2s0,.1-.1.1c0,0-.2,0-.3,0s-.2,0-.3,0-.1,0-.2-.1c0,0,0,0-.1-.1l-1-.9-.7.4v.5c0,.1,0,.2-.1.2s-.2,0-.3,0-.1,0-.2,0c0,0-.1,0-.2,0,0,0,0,0,0-.1s0-.1,0-.2v-1.8c0-.1,0-.2.1-.2,0,0,.2,0,.3,0s.2,0,.3,0c0,0,.1.1.1.2Z"/>
        <path d="M30.2,61.1l-.2-.3h-1.7l-.2.3c0,.1-.1.2-.2.3,0,0-.1,0-.3,0s-.2,0-.3,0c0,0-.1,0-.1-.2s0,0,0-.1c0,0,0,0,0-.2l1.1-1.6s0-.1.1-.2,0-.1.1-.2c0,0,.1,0,.2-.1,0,0,.2,0,.3,0s.2,0,.3,0c0,0,.1,0,.2.1,0,0,0,0,.1.1,0,0,0,.1.1.2l1.1,1.6c0,.1.1.2.1.3s0,.1-.1.2c0,0-.2,0-.3,0s-.1,0-.2,0,0,0-.1,0c0,0,0,0-.1-.1,0,0,0,0,0-.1ZM28.5,60.4h1.3l-.6-1-.6,1Z"/>
        <path d="M36.4,60.3v.5c0,0,0,.1,0,.2,0,0,0,0-.1.1,0,0-.1,0-.2,0-.3,0-.5.1-.7.2s-.5,0-.8,0-.6,0-.9,0c-.3,0-.5-.1-.7-.3-.2-.1-.3-.2-.4-.4-.1-.2-.2-.3-.2-.5s0-.4.1-.5c0-.2.2-.3.4-.4.2-.1.4-.2.7-.3.3,0,.6,0,.9,0s.5,0,.8,0,.4.1.5.2c.1,0,.2.1.3.2s.1.1.1.2,0,.1-.1.2c0,0-.2,0-.3,0s-.1,0-.2,0c0,0-.1,0-.1,0-.1,0-.2-.2-.3-.2,0,0-.2,0-.3-.1s-.3,0-.5,0-.4,0-.5,0-.3,0-.4.2c-.1,0-.2.2-.3.3,0,.1,0,.2,0,.4,0,.3.1.5.3.7s.6.2,1,.2.4,0,.6,0c.2,0,.4,0,.5-.1v-.4h-.7c-.2,0-.3,0-.4,0,0,0-.1,0-.1-.1s0-.1.1-.1.2,0,.3,0h1c.1,0,.2,0,.3,0,0,0,.2,0,.2,0,0,0,0,.1,0,.2Z"/>
        <path d="M38.2,61.1v-2c0-.1,0-.2.1-.2,0,0,.2,0,.3,0s.2,0,.3,0c0,0,.1.1.1.2v2c0,.1,0,.2-.1.2,0,0-.2,0-.3,0s-.2,0-.3,0c0,0-.1-.1-.1-.2Z"/>
        <path d="M42,59.1l1.7,1.5v-1.5c0,0,0-.2.1-.2,0,0,.2,0,.3,0s.2,0,.3,0c0,0,.1.1.1.2v2c0,.2-.2.3-.5.3s-.1,0-.2,0c0,0-.1,0-.2,0,0,0-.1,0-.2,0s0,0-.1-.1l-1.6-1.4v1.5c0,0,0,.2-.1.2,0,0-.2,0-.3,0s-.2,0-.3,0c0,0-.1-.1-.1-.2v-1.9c0,0,0-.1,0-.2,0,0,0,0,.2-.1,0,0,.2,0,.3,0s.1,0,.2,0c0,0,.1,0,.1,0,0,0,0,0,.1,0s0,0,.1.1Z"/>
        <path d="M50.3,60.3v.5c0,0,0,.1,0,.2,0,0,0,0-.1.1,0,0-.1,0-.2,0-.3,0-.5.1-.7.2s-.5,0-.8,0-.6,0-.9,0c-.3,0-.5-.1-.7-.3-.2-.1-.3-.2-.4-.4-.1-.2-.2-.3-.2-.5s0-.4.1-.5c0-.2.2-.3.4-.4.2-.1.4-.2.7-.3.3,0,.6,0,.9,0s.5,0,.8,0,.4.1.5.2c.1,0,.2.1.3.2s.1.1.1.2,0,.1-.1.2c0,0-.2,0-.3,0s-.1,0-.2,0c0,0-.1,0-.1,0-.1,0-.2-.2-.3-.2,0,0-.2,0-.3-.1s-.3,0-.5,0-.4,0-.5,0-.3,0-.4.2c-.1,0-.2.2-.3.3,0,.1,0,.2,0,.4,0,.3.1.5.3.7s.6.2,1,.2.4,0,.6,0c.2,0,.4,0,.5-.1v-.4h-.7c-.2,0-.3,0-.4,0,0,0-.1,0-.1-.1s0-.1.1-.1.2,0,.3,0h1c.1,0,.2,0,.3,0,0,0,.2,0,.2,0,0,0,0,.1,0,.2Z"/>
      </g>
      <g>
        <path class="st1" d="M29.7,54.9v1c0,.1,0,.2,0,.3,0,0,0,.2-.1.2,0,0-.2.1-.3.2-.3.2-.6.3-.9.4s-.6.1-1,.1-.8,0-1.1-.2c-.3-.1-.6-.3-.9-.5-.2-.2-.4-.5-.6-.9-.1-.3-.2-.7-.2-1.1s0-.8.2-1.1.3-.6.6-.9.5-.4.9-.5c.3-.1.7-.2,1.2-.2s.7,0,1,.1c.3,0,.5.2.7.4s.3.3.4.5c0,.2.1.3.1.4s0,.2-.2.3-.2.1-.4.1-.2,0-.2,0c0,0-.1,0-.2-.2-.1-.2-.2-.4-.3-.5,0-.1-.2-.2-.4-.3-.2,0-.4-.1-.6-.1s-.5,0-.7.1c-.2,0-.4.2-.5.4-.1.2-.2.4-.3.6,0,.2-.1.5-.1.8,0,.6.1,1.1.4,1.4.3.3.7.5,1.2.5s.5,0,.7,0c.2,0,.4-.2.7-.3v-.9h-.8c-.2,0-.4,0-.5,0-.1,0-.2-.2-.2-.3s0-.2.1-.3c0,0,.2-.1.4-.1h1.2c.2,0,.3,0,.4,0,.1,0,.2,0,.3.2,0,0,0,.2,0,.4Z"/>
        <path class="st1" d="M32.2,54.8h-.4v1.7c0,.2,0,.4-.2.5-.1.1-.2.2-.4.2s-.3,0-.4-.2c0-.1-.1-.3-.1-.5v-4.1c0-.2,0-.4.2-.5.1-.1.3-.2.5-.2h1.8c.2,0,.5,0,.6,0,.2,0,.3,0,.5.1.2,0,.3.2.4.3.1.1.2.3.3.5,0,.2.1.4.1.5,0,.4-.1.7-.3.9-.2.2-.6.4-1,.5.2.1.4.3.6.4s.3.4.5.6c.1.2.2.4.3.6,0,.2.1.3.1.4s0,.1,0,.2c0,0-.1.1-.2.2,0,0-.2,0-.3,0s-.2,0-.3,0c0,0-.2-.1-.2-.2s-.1-.2-.2-.4l-.4-.7c-.2-.3-.3-.5-.4-.6-.1-.1-.2-.2-.4-.3-.1,0-.3,0-.5,0ZM32.9,52.5h-1v1.5h1c.3,0,.5,0,.7,0,.2,0,.3-.1.4-.2,0-.1.1-.3.1-.4s0-.3-.1-.4c0-.1-.2-.2-.3-.3-.1,0-.4,0-.8,0Z"/>
        <path class="st1" d="M39.8,52.6h-2.5v1.3h2.3c.2,0,.3,0,.4.1s.1.2.1.3,0,.2-.1.3-.2.1-.4.1h-2.3v1.5h2.5c.2,0,.3,0,.4.1,0,0,.1.2.1.3s0,.2-.1.3c0,0-.2.1-.4.1h-3c-.2,0-.4,0-.5-.2-.1-.1-.2-.3-.2-.5v-4c0-.2,0-.3,0-.4,0,0,.1-.2.2-.2,0,0,.2,0,.4,0h2.9c.2,0,.3,0,.4.1,0,0,.1.2.1.3s0,.2-.1.3c0,0-.2.1-.4.1Z"/>
        <path class="st1" d="M44.8,52.6h-2.5v1.3h2.3c.2,0,.3,0,.4.1,0,0,.1.2.1.3s0,.2-.1.3c0,0-.2.1-.4.1h-2.3v1.5h2.5c.2,0,.3,0,.4.1,0,0,.1.2.1.3s0,.2-.1.3c0,0-.2.1-.4.1h-3c-.2,0-.4,0-.5-.2s-.2-.3-.2-.5v-4c0-.2,0-.3,0-.4,0,0,.1-.2.2-.2s.2,0,.4,0h2.9c.2,0,.3,0,.4.1s.1.2.1.3,0,.2-.1.3-.2.1-.4.1Z"/>
        <path class="st1" d="M47.7,52.3l2.1,3.1v-3.1c0-.2,0-.4.1-.5,0-.1.2-.2.4-.2s.3,0,.4.2c0,.1.1.3.1.5v4.2c0,.5-.2.7-.6.7s-.2,0-.3,0c0,0-.2,0-.2-.1,0,0-.1-.1-.2-.2s-.1-.2-.2-.2l-2-3.1v3.1c0,.2,0,.4-.1.5s-.2.2-.4.2-.3,0-.4-.2c0-.1-.1-.3-.1-.5v-4.1c0-.2,0-.3,0-.4,0-.1.1-.2.2-.3s.2-.1.3-.1.2,0,.3,0c0,0,.1,0,.2.1,0,0,.1.1.2.2,0,0,.1.2.2.3Z"/>
      </g>
    </g>
  </g>
  <g>
    <path d="M70.9,43.9v.7h-1.6l-2-1.2-1.3.5c-.4.2-.8.4-1.2.6-.3.2-.6.5-.9.9-.2.3-.3.8-.3,1.2s0,.3,0,.5,0,.3.2.5.2.3.3.5c.1.2.3.3.5.4.2.1.4.2.6.3.3,0,.5.1.8.1s.4,0,.6,0c.2,0,.4,0,.6,0,.2,0,.4,0,.5-.2.2,0,.3-.1.5-.2v.2c0,.1-.2.3-.5.4-.2.1-.5.2-.7.3-.2,0-.5.1-.8.2-.3,0-.5,0-.8,0-.6,0-1.1,0-1.5-.2-.4-.1-.8-.3-1.1-.6-.3-.2-.5-.5-.7-.9-.2-.3-.3-.7-.3-1.1s0-.7.2-.9c.2-.3.3-.5.5-.8.2-.2.5-.5.8-.7s.6-.4,1-.6c.3-.2.7-.4,1-.5l1-.5-3.2-1.8v-.6c.2-.2.5-.4.7-.6.3-.2.6-.3.9-.5.3-.1.6-.2,1-.3.4,0,.7-.1,1.1-.1s.8,0,1.2.1c.4,0,.7.2,1,.4s.6.4.8.7.3.6.3.9,0,.5-.2.7-.3.4-.5.6c-.2.2-.4.3-.7.4l-.8.4,1.2.7h1.6ZM67.1,42.6c.2-.1.4-.2.6-.3.2-.1.3-.2.4-.3.1-.1.2-.2.3-.4,0-.1,0-.3,0-.4,0-.2,0-.5-.3-.7-.2-.2-.4-.4-.6-.5-.3-.1-.6-.2-.9-.3-.3,0-.7,0-1,0s-.7.2-1,.3c-.3.2-.6.4-.8.7l3.3,1.9ZM66.9,38.1c-.2,0-.3,0-.4,0-.1,0-.2-.1-.3-.2-.1,0-.2-.2-.2-.3,0,0,0-.2,0-.3s0-.2,0-.3c0-.1.1-.2.2-.3.1,0,.2-.1.3-.2s.3,0,.4,0,.3,0,.4,0c.1,0,.3.1.3.2s.2.2.2.3c0,.1,0,.2,0,.3s0,.2,0,.3-.1.2-.2.3-.2.1-.3.2c-.1,0-.3,0-.4,0Z"/>
    <path d="M77.5,43.9v.7h-1.1c-.1,0-.3,0-.5,0-.2,0-.3-.1-.4-.2-.1,0-.3-.2-.4-.3-.1-.1-.2-.2-.3-.4v1h-4.3v-.7h2.6v-4.6s.2-.2.2-.2l2.4.8v.2c-.1.1-.3.2-.4.2-.1,0-.2,0-.3.1,0,0-.1,0-.2.1,0,0,0,0,0,.2s0,.1,0,.2v2.2c.2.2.5.3.7.4.3.1.6.2.9.2h1.1ZM73.7,37.9c-.1,0-.3,0-.4,0-.1,0-.3-.1-.4-.2s-.2-.2-.2-.3,0-.2,0-.3,0-.2,0-.3.1-.2.2-.3.2-.1.4-.2c.1,0,.3,0,.4,0s.3,0,.4,0c.1,0,.2.1.3.2s.2.2.2.3,0,.2,0,.3,0,.2,0,.3-.1.2-.2.3-.2.1-.3.2c-.1,0-.3,0-.5,0Z"/>
    <path d="M84.1,43.9v.7h-1.1c-.1,0-.3,0-.5,0-.2,0-.3-.1-.4-.2-.1,0-.3-.2-.4-.3-.1-.1-.2-.2-.3-.4v1h-4.3v-.7h2.6v-4.6s.2-.2.2-.2l2.4.8v.2c-.1.1-.3.2-.4.2-.1,0-.2,0-.3.1,0,0-.1,0-.2.1,0,0,0,0,0,.2s0,.1,0,.2v2.2c.2.2.5.3.7.4.3.1.6.2.9.2h1.1ZM78.7,45.9c.1,0,.3,0,.4,0,.1,0,.3.1.4.2s.2.2.2.3,0,.2,0,.3,0,.2,0,.3c0,.1-.1.2-.2.3s-.2.1-.4.2c-.1,0-.3,0-.4,0s-.3,0-.4,0-.2-.1-.3-.2c-.1,0-.2-.2-.3-.3,0-.1,0-.2,0-.3s0-.2,0-.3.1-.2.3-.3c.1,0,.2-.1.3-.2s.3,0,.4,0ZM81.3,45.9c.2,0,.3,0,.4,0s.2.1.3.2.2.2.2.3,0,.2,0,.3,0,.2,0,.3c0,.1-.1.2-.2.3s-.2.1-.3.2-.3,0-.4,0-.3,0-.4,0-.3-.1-.4-.2c-.1,0-.2-.2-.2-.3,0-.1,0-.2,0-.3s0-.2,0-.3c0-.1.1-.2.2-.3.1,0,.2-.1.4-.2s.3,0,.4,0Z"/>
    <path d="M83.7,43.9h5.4v-2c0-.3,0-.6,0-.9,0-.2-.1-.4-.2-.6-.1-.2-.3-.3-.6-.4-.3-.1-.5-.2-.8-.1-.3,0-.6,0-1,.2-.3.1-.7.4-1,.8h-.3c.2-.4.4-.6.7-.8.3-.2.5-.4.8-.6.3-.2.6-.3.9-.3.3,0,.7,0,1,0,.4,0,.7.1,1,.2.3.1.5.2.8.4.2.2.4.4.5.6.1.2.2.4.2.7v3.7h-7.3v-.7ZM87.9,47.6c-.1,0-.3,0-.4,0-.1,0-.3-.1-.4-.2-.1,0-.2-.2-.2-.3,0-.1,0-.2,0-.3s0-.2,0-.3c0-.1.1-.2.2-.3.1,0,.2-.1.4-.2.1,0,.3,0,.4,0s.3,0,.4,0c.1,0,.3.1.3.2s.2.2.3.3.1.2.1.3,0,.2-.1.3c0,.1-.2.2-.3.3s-.2.1-.3.2c-.1,0-.3,0-.4,0Z"/>
    <path d="M97.8,43.9v.7h-4v-8.6c0,0,.2-.2.2-.2l2.4.9v.2c-.2.2-.4.3-.5.3-.1,0-.2.1-.3.2,0,0,0,.1,0,.2,0,0,0,.3,0,.5v5.8h2.3Z"/>
    <path d="M104.4,40.4c.5,0,.9,0,1.3.1.4,0,.7.2,1,.4.3.2.5.4.7.7.2.3.2.7.2,1.1v1.9h-10.5v-.7h8.7v-1c0-.3,0-.6,0-.9,0-.2-.2-.4-.3-.5-.1-.1-.3-.2-.6-.3-.2,0-.5,0-.8,0h-4.7v-.7l3.2-2.3,2.3-1.6c.3-.2.6-.5.9-.7.3-.3.5-.6.7-.9h.2c0,.2,0,.5-.2.7s-.3.5-.5.7c-.2.3-.5.5-.8.7-.3.2-.6.5-.8.7l-.8.6c-.2.2-.4.3-.6.5l-2.2,1.5h3.7Z"/>
    <path d="M114.7,43.9v.7h-4v-8.6c0,0,.2-.2.2-.2l2.4.9v.2c-.2.2-.4.3-.5.3-.1,0-.2.1-.3.2,0,0,0,.1,0,.2,0,0,0,.3,0,.5v5.8h2.3Z"/>
    <path d="M119.9,40v.2c-.2.1-.3.2-.4.2s-.2,0-.3.1c0,0-.1,0-.2.1s0,0,0,.2c0,0,0,.1,0,.2v3.6h-4.8v-.7h3v-4.6c0,0,.2-.2.2-.2l2.4.8ZM117,45.9c.1,0,.3,0,.4,0s.3.1.3.2c0,0,.2.2.2.3s0,.2,0,.3,0,.2,0,.3c0,.1-.1.2-.2.3,0,0-.2.1-.3.2s-.3,0-.4,0-.3,0-.4,0c-.1,0-.3-.1-.4-.2,0,0-.2-.2-.2-.3,0-.1,0-.2,0-.3s0-.2,0-.3c0-.1.1-.2.2-.3,0,0,.2-.1.4-.2.1,0,.3,0,.4,0Z"/>
    <path d="M139.7,43.9v.7h-1.1c-.2,0-.4,0-.5,0-.2,0-.3-.1-.4-.2-.1,0-.2-.2-.4-.3-.1-.1-.2-.2-.3-.4,0,.5-.1.9-.4,1.3-.3.4-.6.7-1,.9-.4.2-.9.4-1.4.5-.5.1-1,.2-1.5.2s-.4,0-.7,0c-.3,0-.6,0-.9-.1-.3,0-.7-.2-1-.3-.4-.1-.7-.3-1-.6-.3-.2-.5-.5-.7-.9-.2-.3-.3-.8-.3-1.2s0-.6.1-.9c0-.3.2-.5.4-.8s.3-.5.5-.7c.2-.2.4-.4.6-.5.2-.2.4-.3.6-.4.2-.1.4-.2.6-.3v.2c-.2.2-.4.5-.6.8-.1.3-.3.6-.4,1-.1.4-.2,1-.2,1.6s0,.7.2,1c.1.3.3.5.4.7.2.2.4.3.6.4.2.1.4.2.7.3.2,0,.4.1.6.1.2,0,.3,0,.4,0,.4,0,.7,0,1-.1.3,0,.6-.2.9-.4.3-.2.5-.4.6-.7.1-.3.2-.6.2-.9v-4.4s.3-.2.3-.2l2.4.8v.2c-.1.1-.3.2-.4.2s-.2,0-.3.1c0,0-.1,0-.1.1,0,0,0,0,0,.2s0,.1,0,.2v2.3c.2.2.4.3.7.4.3.1.6.2.9.2h1.1ZM133.3,37.9c-.2,0-.3,0-.4,0-.1,0-.2-.1-.3-.2s-.2-.2-.2-.3,0-.2,0-.3,0-.2,0-.3.1-.2.2-.3.2-.1.3-.2c.1,0,.3,0,.4,0s.3,0,.4,0,.3.1.3.2c0,0,.2.2.2.3,0,.1,0,.2,0,.3s0,.2,0,.3c0,.1-.1.2-.2.3,0,0-.2.1-.3.2s-.3,0-.4,0Z"/>
    <path d="M145,40v.2c-.2.1-.3.2-.4.2s-.2,0-.3.1c0,0-.1,0-.2.1s0,0,0,.2c0,0,0,.1,0,.2v3.6h-4.8v-.7h3v-4.6c0,0,.2-.2.2-.2l2.4.8ZM140.6,45.9c.1,0,.3,0,.4,0,.1,0,.3.1.3.2s.2.2.2.3c0,.1,0,.2,0,.3s0,.2,0,.3c0,.1-.1.2-.2.3s-.2.1-.3.2c-.1,0-.3,0-.4,0s-.3,0-.4,0c-.1,0-.2-.1-.3-.2s-.2-.2-.2-.3c0-.1,0-.2,0-.3s0-.2,0-.3.1-.2.2-.3.2-.1.3-.2c.1,0,.3,0,.4,0ZM143.3,45.9c.2,0,.3,0,.5,0,.1,0,.2.1.3.2.1,0,.2.2.2.3,0,.1,0,.2,0,.3s0,.2,0,.3c0,.1-.1.2-.2.3-.1,0-.2.1-.3.2-.1,0-.3,0-.5,0s-.3,0-.4,0c-.1,0-.3-.1-.3-.2,0,0-.2-.2-.2-.3,0-.1,0-.2,0-.3s0-.2,0-.3.1-.2.2-.3c0,0,.2-.1.3-.2.1,0,.3,0,.4,0Z"/>
    <path d="M152.4,43.9v.7h-1c-.2,0-.4,0-.5,0-.1,0-.3-.1-.4-.2-.1,0-.3-.2-.4-.3-.1-.1-.2-.2-.3-.4v.8c0,.5,0,1-.2,1.3-.1.4-.3.7-.6,1-.3.3-.7.5-1.1.7s-1,.3-1.6.5v-.2c.2-.1.5-.3.7-.4.2-.1.4-.3.5-.4.1-.2.3-.3.3-.5,0-.2.1-.4.2-.6,0-.2,0-.5,0-.8s0-.6,0-1v-3.4c0,0,.3-.2.3-.2l2.4.8v.2l-.5.3c-.1,0-.2.1-.3.2,0,0-.1.2-.1.2,0,0,0,.3,0,.5v.6c.2.2.5.3.8.4.3.1.6.2.9.2h1Z"/>
    <path d="M152.1,43.9h5.4v-2c0-.3,0-.6,0-.9,0-.2-.1-.4-.2-.6-.1-.2-.3-.3-.6-.4-.3-.1-.5-.2-.8-.1-.3,0-.6,0-1,.2-.3.1-.7.4-1,.8h-.3c.2-.4.4-.6.7-.8.3-.2.5-.4.8-.6.3-.2.6-.3.9-.3.3,0,.7,0,1,0,.4,0,.7.1,1,.2.3.1.5.2.8.4.2.2.4.4.5.6.1.2.2.4.2.7v3.7h-7.3v-.7ZM156.2,47.6c-.1,0-.3,0-.4,0-.1,0-.3-.1-.4-.2-.1,0-.2-.2-.2-.3,0-.1,0-.2,0-.3s0-.2,0-.3c0-.1.1-.2.2-.3.1,0,.2-.1.4-.2.1,0,.3,0,.4,0s.3,0,.4,0c.1,0,.3.1.3.2s.2.2.3.3.1.2.1.3,0,.2-.1.3c0,.1-.2.2-.3.3s-.2.1-.3.2c-.1,0-.3,0-.4,0Z"/>
    <path d="M169.3,44.6h-1.3c0,.5,0,.9-.2,1.2-.1.3-.3.6-.5.9-.3.3-.6.5-1,.6s-.9.3-1.5.5v-.2c.3-.2.6-.4.8-.6.2-.2.4-.4.5-.6.1-.2.2-.5.2-.8,0-.3,0-.7,0-1.1h-1.6c-.5,0-1,0-1.4-.2s-.8-.3-1.1-.6c-.3-.2-.5-.5-.7-.9s-.3-.7-.3-1.2,0-.8.3-1.2c.2-.4.4-.7.7-.9s.7-.4,1.1-.6c.4-.1.9-.2,1.4-.2s1,0,1.4.2c.4.1.8.3,1,.5.3.2.5.5.7.9.2.3.2.7.2,1.2v2.1h1.3v.7ZM163.1,41.7c0,.3,0,.6,0,.8s.1.5.2.7c.1.2.3.3.5.5.2.1.5.2.9.2h1.4v-2c0-.3,0-.6,0-.9,0-.3,0-.6-.2-.8-.1-.2-.3-.4-.5-.6-.2-.2-.5-.2-.9-.2s-.6,0-.8.2c-.2.1-.4.3-.5.5-.1.2-.2.5-.2.8s0,.6,0,.8Z"/>
    <path d="M184,43.9v.7h-1c-.2,0-.4,0-.5,0s-.3-.1-.4-.2c-.1,0-.3-.2-.4-.3s-.2-.2-.3-.4v1h-2.8c-.2,0-.4,0-.5,0-.2,0-.3-.1-.4-.2-.1,0-.3-.2-.4-.3-.1-.1-.2-.2-.3-.4v1h-2.8c-.2,0-.3,0-.5,0-.2,0-.3-.1-.5-.2-.1,0-.3-.2-.4-.3s-.2-.2-.3-.4v1h-3.6v-.7h1.8v-3.3c0,0,.2-.2.2-.2l1.5.5v2.3c.2.2.4.3.7.4.3.1.6.2.9.2h1v-3.3c0,0,.2-.2.2-.2l1.5.5v2.3c.2.2.5.3.8.4.3.1.6.2.9.2h1v-3.3c0,0,.3-.2.3-.2l2.4.9v.2c-.1,0-.3.2-.4.2-.1,0-.2.1-.3.1,0,0-.1,0-.1.1s0,0,0,.1c0,0,0,.1,0,.2,0,0,0,.2,0,.4v.6c.2.2.4.3.7.4.3.1.6.2.9.2h1Z"/>
    <path d="M190.7,40.4c.5,0,.9,0,1.3.1.4,0,.7.2,1,.4.3.2.5.4.7.7.2.3.2.7.2,1.1v1.9h-10.5v-.7h8.7v-1c0-.3,0-.6,0-.9,0-.2-.2-.4-.3-.5-.1-.1-.3-.2-.6-.3-.2,0-.5,0-.8,0h-4.7v-.7l3.2-2.3,2.3-1.6c.3-.2.6-.5.9-.7.3-.3.5-.6.7-.9h.2c0,.2,0,.5-.2.7s-.3.5-.5.7c-.2.3-.5.5-.8.7-.3.2-.6.5-.8.7l-.8.6c-.2.2-.4.3-.6.5l-2.2,1.5h3.7Z"/>
    <path d="M203,44.4c0,.5,0,1-.2,1.3-.1.4-.3.7-.5.9-.3.3-.6.5-1,.7s-.9.4-1.5.5v-.2c.4-.2.7-.4.9-.6.2-.2.4-.4.5-.6.1-.2.2-.5.2-.8,0-.3,0-.7,0-1.1h-1.6c-.5,0-1,0-1.4-.2s-.8-.3-1.1-.6c-.3-.2-.5-.5-.7-.9-.2-.3-.2-.7-.2-1.2s0-.8.2-1.2c.2-.4.4-.7.7-.9.3-.2.7-.4,1.1-.6.4-.1.9-.2,1.4-.2s1,0,1.4.2c.4.1.8.3,1,.5.3.2.5.5.7.9.2.3.2.7.2,1.2v2.6ZM198,41.7c0,.3,0,.6,0,.8s.1.5.3.7c.1.2.3.3.5.5.2.1.5.2.9.2h1.5v-2c0-.3,0-.6,0-.9,0-.3-.1-.6-.2-.8-.1-.2-.3-.4-.5-.6s-.5-.2-.8-.2-.7,0-.9.2c-.2.1-.4.3-.5.5-.1.2-.2.5-.3.8s0,.6,0,.8Z"/>
    <path d="M205,44.6v-8.6s.3-.2.3-.2l2.3.9v.2c-.2.2-.3.3-.5.3-.1,0-.2.1-.3.2,0,0-.1.1-.1.2,0,0,0,.3,0,.5v6.5h-1.8Z"/>
  </g>
  <text class="st2" transform="translate(62 31.4) scale(1 1.1)"><tspan x="0" y="0" xml:space="preserve">OXOGREEN  PACKAGING</tspan></text>
</svg>